/* XPM */
static char *_922df3089b144b7d23af0b92c317d2dINDLwV8TgmuDnUIV[] = {
/* columns rows colors chars-per-pixel */
"32 32 2 1 ",
"  c #FFF200",
". c #F7AB79",
/* pixels */
"................................",
"................................",
"................................",
"...........         ............",
"..........            ..........",
".........               ........",
"........                  ......",
".......                    .....",
"......                      ....",
".....                       ....",
".....                       ....",
".....                       ....",
"....                        ....",
"....                        ....",
"....                        ....",
"....                        ....",
"....                        ....",
"....                        ....",
"....                        ....",
".....                       ....",
".....                       ....",
".....                      .....",
"......                    ......",
"......                    ......",
"........                 .......",
".........                .......",
"...........             ........",
".............          .........",
"................     ...........",
"................................",
"................................",
"................................"
};
