/* XPM */
static char *a59b1864c0614613c657917caf212673etgYVgjRTpIy0LD2[] = {
/* columns rows colors chars-per-pixel */
"32 32 7 1 ",
"  c None",
". c black",
"X c #F75B63",
"o c #F7AB79",
"O c gray63",
"+ c #C3C3C3",
"@ c white",
/* pixels */
"oooooooooooo.......ooooooooooooo",
"ooooooooo...XXXXXXX...oooooooooo",
"ooooooo..XXXXXXXXXXXXX..oooooooo",
"oooooo.XXXXXXXXXXXXXXXXX.ooooooo",
"ooooo.XXXXXXXXXXXXXXXXXXX.oooooo",
"oooo.XXXXXXXXXXXXXXXXXXXXX.ooooo",
"ooo.XXXXXXXXXXXXXXXXXXXXXXX.oooo",
"oo.XXXXX..XXXXXXXXXXX..XXXXX.ooo",
"oo.XXXX.O..XXXXXXXXX....XXXX.ooo",
"o.XXXXX.O....XXXXX...OO..XXXX.oo",
"o.XXXX..+.++...XX..+..OO.XXXX.oo",
"o.XXXX.++..@@.+..O.@ . +.XXXX.oo",
".XXXXX.+@@..@.@.@@. ..@+.XXXXX.o",
".XXXXX.. @@...@.@@...@ @.XXXXX.o",
".XXXXXX.@@@@@@@..@@@@@@@.XX..X.o",
".XXXXXX..@@@@@...@@@@@ @.X..XX.o",
".XXXXXXX...@@..X...@@@@.XX.XXX.o",
".XXXXXXXXX....XXXX.....XXX.XXX.o",
".XXXXXXXXXXXXXXXXXXXXXXXXXX..X.o",
"o.XXXXXXXXXXXXXXXXXXXXXXXXX.X.oo",
"o.XXXXXXXXXXXXXXXXXXXXXXXX..X.oo",
"o.XXXXXXXXXXXXXXXXXXXXXXX..XX.oo",
"oo.XXXXXXXXXXXXXXXXXXXXX..XX.ooo",
"oo.XXXXXXXXXXXXXXXXXXXX..XXX.ooo",
"ooo.XXXXXXXXXXXXXXXXXX..XXX.oooo",
"oooo.XXXXXXXXXXXXXXX...XXX.ooooo",
"ooooo.XXXXXXXXXXX....XXXX.oooooo",
"oooooo.XXXXX......XXXXXX.ooooooo",
"ooooooo..XXXXXXXXXXXXX..oooooooo",
"ooooooooo...XXXXXXX...oooooooooo",
"oooooooooooo.......ooooooooooooo",
"oooooooooooooooooooooooooooooooo"
};
